<svg xmlns="http://www.w3.org/2000/svg" xmlns:xlink="http://www.w3.org/1999/xlink" width="500" zoomAndPan="magnify" viewBox="0 0 375 374.999991" height="500" preserveAspectRatio="xMidYMid meet" version="1.2"><defs/><g id="848894d050"><rect x="0" width="375" y="0" height="374.999991" style="fill:#ffffff;fill-opacity:1;stroke:none;"/><rect x="0" width="375" y="0" height="374.999991" style="fill:#000000;fill-opacity:1;stroke:none;"/><g style="fill:#d9d9d9;fill-opacity:1;"><g transform="translate(114.77427, 230.636974)"><path style="stroke:none" d="M 51.125 1.75 C 35.332031 1.75 23.15625 -2.257812 14.59375 -10.28125 C 6.03125 -18.300781 1.75 -31.125 1.75 -48.75 C 1.75 -82.414062 18.125 -99.25 50.875 -99.25 C 58.8125 -99.25 66.179688 -98.285156 72.984375 -96.359375 C 79.796875 -94.441406 84.875 -92.3125 88.21875 -89.96875 L 88.21875 -58.640625 L 58.140625 -58.640625 L 58.140625 -67.671875 C 58.140625 -70.847656 57.429688 -73.1875 56.015625 -74.6875 C 54.597656 -76.1875 52.46875 -76.9375 49.625 -76.9375 C 46.78125 -76.9375 44.648438 -76.1875 43.234375 -74.6875 C 41.816406 -73.1875 41.109375 -70.847656 41.109375 -67.671875 L 41.109375 -29.828125 C 41.109375 -26.648438 41.816406 -24.304688 43.234375 -22.796875 C 44.648438 -21.296875 46.78125 -20.546875 49.625 -20.546875 C 52.46875 -20.546875 54.597656 -21.296875 56.015625 -22.796875 C 57.429688 -24.304688 58.140625 -26.648438 58.140625 -29.828125 L 58.140625 -39.96875 L 88.21875 -39.96875 L 88.21875 -7.515625 C 84.789062 -5.179688 79.710938 -3.050781 72.984375 -1.125 C 66.265625 0.789062 58.976562 1.75 51.125 1.75 Z M 51.125 1.75 "/></g></g><g style="fill:#000000;fill-opacity:1;"><g transform="translate(185.763683, 231.027729)"><path style="stroke:none" d="M 34.210938 6.453125 C 27.386719 6.453125 20.902344 5.675781 14.761719 4.117188 C 8.46875 2.519531 3.171875 0.273438 -1.121094 -2.621094 L -3.195312 -4.015625 L -3.195312 -33.273438 L 31.265625 -33.273438 L 31.265625 -27.320312 C 31.265625 -26.683594 31.328125 -26.171875 31.449219 -25.792969 C 31.5 -25.640625 31.542969 -25.542969 31.582031 -25.503906 C 31.601562 -25.480469 31.664062 -25.453125 31.769531 -25.414062 C 32.085938 -25.304688 32.523438 -25.25 33.082031 -25.25 C 33.976562 -25.25 34.519531 -25.359375 34.71875 -25.570312 C 34.78125 -25.640625 34.851562 -25.796875 34.921875 -26.039062 C 35.074219 -26.554688 35.152344 -27.230469 35.152344 -28.070312 L 35.152344 -76.945312 L 39.851562 -76.945312 L 39.851562 -72.246094 L 23.871094 -72.246094 L 23.871094 -102.195312 L 85.90625 -102.195312 L 85.90625 -72.246094 L 74.941406 -72.246094 L 74.941406 -76.945312 L 79.640625 -76.945312 L 79.640625 -34.839844 C 79.640625 -21.101562 75.488281 -10.734375 67.191406 -3.738281 C 59.132812 3.058594 48.136719 6.453125 34.210938 6.453125 Z M 34.210938 -2.945312 C 45.851562 -2.945312 54.824219 -5.605469 61.132812 -10.925781 C 67.203125 -16.042969 70.242188 -24.015625 70.242188 -34.839844 L 70.242188 -81.644531 L 81.207031 -81.644531 L 81.207031 -76.945312 L 76.507812 -76.945312 L 76.507812 -97.496094 L 81.207031 -97.496094 L 81.207031 -92.796875 L 28.574219 -92.796875 L 28.574219 -97.496094 L 33.273438 -97.496094 L 33.273438 -76.945312 L 28.574219 -76.945312 L 28.574219 -81.644531 L 44.550781 -81.644531 L 44.550781 -28.070312 C 44.550781 -24.25 43.566406 -21.28125 41.597656 -19.167969 C 39.542969 -16.957031 36.703125 -15.851562 33.082031 -15.851562 C 29.578125 -15.851562 26.820312 -16.894531 24.8125 -18.984375 C 22.847656 -21.023438 21.867188 -23.800781 21.867188 -27.320312 L 21.867188 -28.574219 L 26.566406 -28.574219 L 26.566406 -23.871094 L 1.503906 -23.871094 L 1.503906 -28.574219 L 6.203125 -28.574219 L 6.203125 -6.515625 L 1.503906 -6.515625 L 4.128906 -10.414062 C 7.519531 -8.128906 11.835938 -6.320312 17.070312 -4.992188 C 22.457031 -3.628906 28.167969 -2.945312 34.210938 -2.945312 Z M 34.210938 -2.945312 "/></g></g><g style="fill:#d9d9d9;fill-opacity:1;"><g transform="translate(185.763683, 231.027729)"><path style="stroke:none" d="M 34.203125 1.75 C 27.773438 1.75 21.675781 1.019531 15.90625 -0.4375 C 10.144531 -1.894531 5.34375 -3.921875 1.5 -6.515625 L 1.5 -28.578125 L 26.5625 -28.578125 L 26.5625 -27.3125 C 26.5625 -22.800781 28.734375 -20.546875 33.078125 -20.546875 C 35.335938 -20.546875 37.03125 -21.148438 38.15625 -22.359375 C 39.28125 -23.578125 39.84375 -25.476562 39.84375 -28.0625 L 39.84375 -76.9375 L 28.578125 -76.9375 L 28.578125 -97.5 L 81.203125 -97.5 L 81.203125 -76.9375 L 74.9375 -76.9375 L 74.9375 -34.84375 C 74.9375 -22.5625 71.34375 -13.390625 64.15625 -7.328125 C 56.976562 -1.273438 46.992188 1.75 34.203125 1.75 Z M 34.203125 1.75 "/></g></g><g style="fill:#d9d9d9;fill-opacity:1;"><g transform="translate(95.884437, 258.843132)"><path style="stroke:none" d="M 5.46875 0.140625 C 4.539062 0.140625 3.722656 -0.046875 3.015625 -0.421875 C 2.316406 -0.804688 1.769531 -1.382812 1.375 -2.15625 C 0.976562 -2.925781 0.78125 -3.875 0.78125 -5 C 0.78125 -6.125 0.976562 -7.066406 1.375 -7.828125 C 1.769531 -8.597656 2.316406 -9.175781 3.015625 -9.5625 C 3.722656 -9.945312 4.539062 -10.140625 5.46875 -10.140625 C 6.425781 -10.140625 7.238281 -9.953125 7.90625 -9.578125 C 8.582031 -9.203125 9.066406 -8.628906 9.359375 -7.859375 L 7.90625 -6.96875 L 7.734375 -6.984375 C 7.523438 -7.503906 7.234375 -7.875 6.859375 -8.09375 C 6.492188 -8.320312 6.03125 -8.4375 5.46875 -8.4375 C 4.632812 -8.4375 3.984375 -8.160156 3.515625 -7.609375 C 3.054688 -7.054688 2.828125 -6.1875 2.828125 -5 C 2.828125 -3.8125 3.054688 -2.941406 3.515625 -2.390625 C 3.984375 -1.835938 4.632812 -1.5625 5.46875 -1.5625 C 6.757812 -1.5625 7.550781 -2.191406 7.84375 -3.453125 L 8.015625 -3.453125 L 9.46875 -2.703125 C 9.195312 -1.753906 8.726562 -1.039062 8.0625 -0.5625 C 7.40625 -0.09375 6.539062 0.140625 5.46875 0.140625 Z M 5.46875 0.140625 "/></g></g><g style="fill:#d9d9d9;fill-opacity:1;"><g transform="translate(107.221697, 258.843132)"><path style="stroke:none" d="M 7.75 -6.234375 L 7.75 -10 L 9.71875 -10 L 9.71875 0 L 7.75 0 L 7.75 -4.546875 L 3.28125 -4.546875 L 3.28125 0 L 1.296875 0 L 1.296875 -10 L 3.28125 -10 L 3.28125 -6.234375 Z M 7.75 -6.234375 "/></g></g><g style="fill:#d9d9d9;fill-opacity:1;"><g transform="translate(119.781907, 258.843132)"><path style="stroke:none" d="M 9.59375 0 L 7.515625 0 L 6.765625 -2.296875 L 2.9375 -2.296875 L 2.1875 0 L 0.15625 0 L 3.609375 -10 L 6.140625 -10 Z M 4.75 -7.90625 L 3.46875 -3.96875 L 6.21875 -3.96875 L 4.921875 -7.90625 Z M 4.75 -7.90625 "/></g></g><g style="fill:#d9d9d9;fill-opacity:1;"><g transform="translate(131.057679, 258.843132)"><path style="stroke:none" d="M 3.21875 0 L 1.296875 0 L 1.296875 -10 L 3.5625 -10 L 7.578125 -3.5625 L 7.75 -3.578125 L 7.75 -10 L 9.65625 -10 L 9.65625 0 L 7.625 0 L 3.390625 -6.875 L 3.21875 -6.84375 Z M 3.21875 0 "/></g></g><g style="fill:#d9d9d9;fill-opacity:1;"><g transform="translate(143.549568, 258.843132)"><path style="stroke:none" d="M 4.890625 -10 C 6.515625 -10 7.753906 -9.578125 8.609375 -8.734375 C 9.460938 -7.898438 9.890625 -6.65625 9.890625 -5 C 9.890625 -3.34375 9.460938 -2.09375 8.609375 -1.25 C 7.753906 -0.414062 6.515625 0 4.890625 0 L 1.296875 0 L 1.296875 -10 Z M 4.78125 -1.65625 C 5.8125 -1.65625 6.582031 -1.914062 7.09375 -2.4375 C 7.601562 -2.96875 7.859375 -3.820312 7.859375 -5 C 7.859375 -6.164062 7.601562 -7.007812 7.09375 -7.53125 C 6.582031 -8.0625 5.8125 -8.328125 4.78125 -8.328125 L 3.28125 -8.328125 L 3.28125 -1.65625 Z M 4.78125 -1.65625 "/></g></g><g style="fill:#d9d9d9;fill-opacity:1;"><g transform="translate(155.768172, 258.843132)"><path style="stroke:none" d="M 5.296875 0.140625 C 3.921875 0.140625 2.898438 -0.179688 2.234375 -0.828125 C 1.566406 -1.484375 1.234375 -2.457031 1.234375 -3.75 L 1.234375 -10 L 3.171875 -10 L 3.171875 -3.765625 C 3.171875 -3.035156 3.34375 -2.488281 3.6875 -2.125 C 4.039062 -1.757812 4.578125 -1.578125 5.296875 -1.578125 C 6.710938 -1.578125 7.421875 -2.304688 7.421875 -3.765625 L 7.421875 -10 L 9.359375 -10 L 9.359375 -3.75 C 9.359375 -2.457031 9.023438 -1.484375 8.359375 -0.828125 C 7.691406 -0.179688 6.671875 0.140625 5.296875 0.140625 Z M 5.296875 0.140625 "/></g></g><g style="fill:#d9d9d9;fill-opacity:1;"><g transform="translate(167.897959, 258.843132)"><path style="stroke:none" d="M 5.15625 -10 C 5.875 -10 6.488281 -9.863281 7 -9.59375 C 7.507812 -9.332031 7.890625 -8.96875 8.140625 -8.5 C 8.398438 -8.03125 8.53125 -7.484375 8.53125 -6.859375 C 8.53125 -6.234375 8.398438 -5.6875 8.140625 -5.21875 C 7.890625 -4.75 7.507812 -4.378906 7 -4.109375 C 6.488281 -3.847656 5.875 -3.71875 5.15625 -3.71875 L 3.28125 -3.71875 L 3.28125 0 L 1.296875 0 L 1.296875 -10 Z M 4.90625 -5.296875 C 6 -5.296875 6.546875 -5.816406 6.546875 -6.859375 C 6.546875 -7.898438 6 -8.421875 4.90625 -8.421875 L 3.28125 -8.421875 L 3.28125 -5.296875 Z M 4.90625 -5.296875 "/></g></g><g style="fill:#d9d9d9;fill-opacity:1;"><g transform="translate(178.565671, 258.843132)"><path style="stroke:none" d="M 9.59375 0 L 7.515625 0 L 6.765625 -2.296875 L 2.9375 -2.296875 L 2.1875 0 L 0.15625 0 L 3.609375 -10 L 6.140625 -10 Z M 4.75 -7.90625 L 3.46875 -3.96875 L 6.21875 -3.96875 L 4.921875 -7.90625 Z M 4.75 -7.90625 "/></g></g><g style="fill:#d9d9d9;fill-opacity:1;"><g transform="translate(189.841443, 258.843132)"><path style="stroke:none" d=""/></g></g><g style="fill:#d9d9d9;fill-opacity:1;"><g transform="translate(194.681355, 258.843132)"><path style="stroke:none" d="M 3.5 0.140625 C 2.65625 0.140625 1.953125 -0.0195312 1.390625 -0.34375 C 0.828125 -0.664062 0.421875 -1.097656 0.171875 -1.640625 L 1.28125 -2.984375 L 1.453125 -2.984375 C 1.628906 -2.546875 1.882812 -2.203125 2.21875 -1.953125 C 2.5625 -1.703125 2.953125 -1.578125 3.390625 -1.578125 C 3.890625 -1.578125 4.257812 -1.71875 4.5 -2 C 4.738281 -2.289062 4.859375 -2.765625 4.859375 -3.421875 L 4.859375 -10 L 6.828125 -10 L 6.828125 -3.390625 C 6.828125 -2.179688 6.550781 -1.289062 6 -0.71875 C 5.457031 -0.144531 4.625 0.140625 3.5 0.140625 Z M 3.5 0.140625 "/></g></g><g style="fill:#d9d9d9;fill-opacity:1;"><g transform="translate(204.283256, 258.843132)"><path style="stroke:none" d="M 9.59375 0 L 7.515625 0 L 6.765625 -2.296875 L 2.9375 -2.296875 L 2.1875 0 L 0.15625 0 L 3.609375 -10 L 6.140625 -10 Z M 4.75 -7.90625 L 3.46875 -3.96875 L 6.21875 -3.96875 L 4.921875 -7.90625 Z M 4.75 -7.90625 "/></g></g><g style="fill:#d9d9d9;fill-opacity:1;"><g transform="translate(215.559027, 258.843132)"><path style="stroke:none" d="M 5.46875 0 L 3.5 0 L 3.5 -3.921875 L 0.046875 -10 L 2.171875 -10 L 4.453125 -6.0625 L 4.625 -6.0625 L 6.859375 -10 L 8.921875 -10 L 5.46875 -3.921875 Z M 5.46875 0 "/></g></g><g style="fill:#d9d9d9;fill-opacity:1;"><g transform="translate(226.069601, 258.843132)"><path style="stroke:none" d="M 9.59375 0 L 7.515625 0 L 6.765625 -2.296875 L 2.9375 -2.296875 L 2.1875 0 L 0.15625 0 L 3.609375 -10 L 6.140625 -10 Z M 4.75 -7.90625 L 3.46875 -3.96875 L 6.21875 -3.96875 L 4.921875 -7.90625 Z M 4.75 -7.90625 "/></g></g><g style="fill:#d9d9d9;fill-opacity:1;"><g transform="translate(237.345372, 258.843132)"><path style="stroke:none" d="M 3.28125 -10 L 3.28125 -1.65625 L 7.765625 -1.65625 L 7.765625 0 L 1.296875 0 L 1.296875 -10 Z M 3.28125 -10 "/></g></g><g style="fill:#d9d9d9;fill-opacity:1;"><g transform="translate(246.974602, 258.843132)"><path style="stroke:none" d="M 9.59375 0 L 7.515625 0 L 6.765625 -2.296875 L 2.9375 -2.296875 L 2.1875 0 L 0.15625 0 L 3.609375 -10 L 6.140625 -10 Z M 4.75 -7.90625 L 3.46875 -3.96875 L 6.21875 -3.96875 L 4.921875 -7.90625 Z M 4.75 -7.90625 "/></g></g><g style="fill:#d9d9d9;fill-opacity:1;"><g transform="translate(258.250374, 258.843132)"><path style="stroke:none" d="M 8.015625 -10 L 8.015625 -8.328125 L 5.125 -8.328125 L 5.125 0 L 3.15625 0 L 3.15625 -8.328125 L 0.28125 -8.328125 L 0.28125 -10 Z M 8.015625 -10 "/></g></g><g style="fill:#d9d9d9;fill-opacity:1;"><g transform="translate(268.070903, 258.843132)"><path style="stroke:none" d="M 7.75 -6.234375 L 7.75 -10 L 9.71875 -10 L 9.71875 0 L 7.75 0 L 7.75 -4.546875 L 3.28125 -4.546875 L 3.28125 0 L 1.296875 0 L 1.296875 -10 L 3.28125 -10 L 3.28125 -6.234375 Z M 7.75 -6.234375 "/></g></g></g></svg>